<?xml version="1.0"?><svg fill="#ffffff" xmlns="http://www.w3.org/2000/svg"  viewBox="0 0 100 100" width="100px" height="100px">    <path d="M 30.267578 17.654297 C 23.099578 17.654297 17.267578 23.486297 17.267578 30.654297 L 17.267578 69.654297 C 17.267578 76.822297 23.099578 82.654297 30.267578 82.654297 L 69.267578 82.654297 C 76.435578 82.654297 82.267578 76.822297 82.267578 69.654297 L 82.267578 30.654297 C 82.267578 23.485297 76.435578 17.654297 69.267578 17.654297 L 30.267578 17.654297 z M 30.267578 19.654297 L 69.267578 19.654297 C 75.332578 19.654297 80.267578 24.589297 80.267578 30.654297 L 80.267578 69.654297 C 80.267578 75.719297 75.332578 80.654297 69.267578 80.654297 L 30.267578 80.654297 C 24.202578 80.654297 19.267578 75.719297 19.267578 69.654297 L 19.267578 30.654297 C 19.267578 24.589297 24.202578 19.654297 30.267578 19.654297 z M 33.105469 22.652344 C 27.129469 22.652344 22.267578 27.514234 22.267578 33.490234 L 22.267578 66.816406 C 22.267578 72.792406 27.129469 77.652344 33.105469 77.652344 L 66.431641 77.652344 C 72.407641 77.652344 77.267578 72.792406 77.267578 66.816406 L 77.267578 48.154297 C 77.267578 47.877297 77.043578 47.654297 76.767578 47.654297 C 76.491578 47.654297 76.267578 47.878297 76.267578 48.154297 L 76.267578 66.816406 C 76.267578 72.240406 71.855641 76.654297 66.431641 76.654297 L 33.105469 76.654297 C 27.681469 76.654297 23.267578 72.240406 23.267578 66.816406 L 23.267578 33.490234 C 23.267578 28.066234 27.681469 23.652344 33.105469 23.652344 L 66.767578 23.652344 C 67.043578 23.652344 67.267578 23.428344 67.267578 23.152344 C 67.267578 22.876344 67.043578 22.652344 66.767578 22.652344 L 33.105469 22.652344 z M 42.703125 33.023438 C 37.445125 33.023438 33.167969 37.240781 33.167969 42.425781 C 33.167969 44.032781 33.585859 45.616578 34.380859 47.017578 C 34.191859 47.998578 34.095703 49.007578 34.095703 50.017578 C 34.093703 58.759578 41.307781 65.871094 50.175781 65.871094 C 51.104781 65.871094 52.035266 65.790766 52.947266 65.634766 C 54.286266 66.312766 55.787781 66.671875 57.300781 66.671875 C 62.558781 66.671875 66.835938 62.452578 66.835938 57.267578 C 66.835938 55.858578 66.527922 54.507047 65.919922 53.248047 C 66.144922 52.188047 66.257813 51.102578 66.257812 50.017578 C 66.257812 41.275578 59.042781 34.164063 50.175781 34.164062 C 49.319781 34.164062 48.457328 34.232234 47.611328 34.365234 C 46.132328 33.487234 44.439125 33.023437 42.703125 33.023438 z M 42.701172 34.023438 C 44.314172 34.023438 45.885141 34.4685 47.244141 35.3125 C 47.348141 35.3765 47.471797 35.400859 47.591797 35.380859 C 48.442797 35.235859 49.312781 35.162109 50.175781 35.162109 C 58.490781 35.162109 65.255859 41.827578 65.255859 50.017578 C 65.255859 51.088578 65.138297 52.160125 64.904297 53.203125 C 64.879297 53.316125 64.893313 53.433109 64.945312 53.537109 C 65.535313 54.700109 65.835937 55.954625 65.835938 57.265625 C 65.835938 61.899625 62.005828 65.669922 57.298828 65.669922 C 55.890828 65.669922 54.493766 65.323922 53.259766 64.669922 C 53.186766 64.630922 53.106391 64.611328 53.025391 64.611328 C 52.995391 64.611328 52.964547 64.614141 52.935547 64.619141 C 52.030547 64.785141 51.101781 64.869141 50.175781 64.869141 C 41.859781 64.869141 35.09375 58.206625 35.09375 50.015625 C 35.09375 49.007625 35.195484 48.003297 35.396484 47.029297 C 35.421484 46.907297 35.399938 46.778875 35.335938 46.671875 C 34.569938 45.385875 34.164062 43.916781 34.164062 42.425781 C 34.164062 37.791781 37.994172 34.023437 42.701172 34.023438 z M 76.767578 37.654297 C 76.491578 37.654297 76.267578 37.877297 76.267578 38.154297 L 76.267578 40.154297 C 76.267578 40.430297 76.491578 40.654297 76.767578 40.654297 C 77.043578 40.654297 77.267578 40.430297 77.267578 40.154297 L 77.267578 38.154297 C 77.267578 37.878297 77.043578 37.654297 76.767578 37.654297 z M 49.9375 39.148438 C 48.3215 39.148438 46.884875 39.400438 45.671875 39.898438 C 44.408875 40.414437 43.425047 41.173344 42.748047 42.152344 C 42.060047 43.141344 41.712891 44.287641 41.712891 45.556641 C 41.712891 46.887641 42.046031 48.0245 42.707031 48.9375 C 43.347031 49.8225 44.217922 50.527156 45.294922 51.035156 C 46.307922 51.510156 47.567922 51.927344 49.044922 52.277344 C 50.092922 52.520344 50.933828 52.751844 51.548828 52.964844 C 52.081828 53.148844 52.516844 53.411094 52.839844 53.746094 C 53.110844 54.028094 53.234375 54.382328 53.234375 54.861328 C 53.233375 55.467328 52.968391 55.953812 52.400391 56.382812 C 51.779391 56.852812 50.936484 57.089844 49.896484 57.089844 C 49.145484 57.089844 48.542422 56.975047 48.107422 56.748047 C 47.679422 56.524047 47.346141 56.241156 47.119141 55.910156 C 46.854141 55.521156 46.603047 55.026406 46.373047 54.441406 C 46.122047 53.792406 45.805641 53.2855 45.431641 52.9375 C 45.006641 52.5395 44.465281 52.330078 43.863281 52.330078 C 43.138281 52.330078 42.527828 52.583031 42.048828 53.082031 C 41.571828 53.580031 41.330078 54.186766 41.330078 54.884766 C 41.330078 55.884766 41.656828 56.910594 42.298828 57.933594 C 42.925828 58.936594 43.753719 59.749563 44.761719 60.351562 C 46.148719 61.165563 47.909953 61.578125 50.001953 61.578125 C 51.739953 61.578125 53.274453 61.277547 54.564453 60.685547 C 55.889453 60.075547 56.913469 59.214 57.605469 58.125 C 58.304469 57.034 58.658203 55.786969 58.658203 54.417969 C 58.658203 53.275969 58.449109 52.286516 58.037109 51.478516 C 57.627109 50.670516 57.047453 49.993844 56.314453 49.464844 C 55.622453 48.965844 54.778641 48.537359 53.806641 48.193359 C 52.887641 47.866359 51.833594 47.560109 50.683594 47.287109 C 49.803594 47.061109 49.160297 46.889438 48.779297 46.773438 C 48.434297 46.666438 48.090859 46.518984 47.755859 46.333984 C 47.464859 46.171984 47.237031 45.983438 47.082031 45.773438 C 46.959031 45.607438 46.902344 45.417828 46.902344 45.173828 C 46.902344 44.918828 46.970547 44.530562 47.560547 44.101562 C 48.075547 43.727562 48.787688 43.539063 49.679688 43.539062 C 50.619687 43.539062 51.314547 43.703625 51.685547 44.015625 C 52.110547 44.370625 52.4865 44.889219 52.8125 45.574219 C 53.1325 46.186219 53.435281 46.628781 53.738281 46.925781 C 54.115281 47.294781 54.636062 47.480469 55.289062 47.480469 C 55.996063 47.480469 56.619797 47.192438 57.091797 46.648438 C 57.554797 46.118437 57.789063 45.507031 57.789062 44.832031 C 57.789062 44.184031 57.624734 43.519469 57.302734 42.855469 C 56.986734 42.206469 56.490219 41.585719 55.824219 41.011719 C 55.164219 40.442719 54.335328 39.983438 53.361328 39.648438 C 52.394328 39.315438 51.246266 39.148437 49.947266 39.148438 L 49.9375 39.148438 z M 49.933594 40.146484 L 49.943359 40.146484 C 51.131359 40.146484 52.17025 40.29775 53.03125 40.59375 C 53.88425 40.88675 54.603969 41.281578 55.167969 41.767578 C 55.729969 42.252578 56.143438 42.766969 56.398438 43.292969 C 56.654438 43.818969 56.785156 44.336031 56.785156 44.832031 C 56.785156 45.264031 56.637031 45.643188 56.332031 45.992188 C 56.047031 46.321188 55.705156 46.480469 55.285156 46.480469 C 54.903156 46.480469 54.616594 46.388984 54.433594 46.208984 C 54.209594 45.989984 53.961125 45.620953 53.703125 45.126953 C 53.323125 44.327953 52.858266 43.693094 52.322266 43.246094 C 51.762266 42.775094 50.873734 42.537109 49.677734 42.537109 C 48.569734 42.537109 47.65675 42.791969 46.96875 43.292969 C 46.25875 43.808969 45.898437 44.441828 45.898438 45.173828 C 45.898438 45.636828 46.022391 46.026187 46.275391 46.367188 C 46.515391 46.692188 46.849578 46.975031 47.267578 47.207031 C 47.663578 47.426031 48.071422 47.601516 48.482422 47.728516 C 48.874422 47.848516 49.531406 48.024813 50.441406 48.257812 C 51.564406 48.524813 52.58375 48.818766 53.46875 49.134766 C 54.35275 49.446766 55.111562 49.830438 55.726562 50.273438 C 56.328562 50.708438 56.805531 51.264687 57.144531 51.929688 C 57.484531 52.596688 57.65625 53.433016 57.65625 54.416016 C 57.65625 55.591016 57.353766 56.657937 56.759766 57.585938 C 56.170766 58.510937 55.291531 59.248391 54.144531 59.775391 C 52.988531 60.306391 51.593 60.576172 50 60.576172 C 48.089 60.576172 46.496531 60.210234 45.269531 59.490234 C 44.401531 58.972234 43.686531 58.270344 43.144531 57.402344 C 42.603531 56.540344 42.328125 55.693766 42.328125 54.884766 C 42.328125 54.447766 42.474531 54.084391 42.769531 53.775391 C 43.057531 53.476391 43.413328 53.330078 43.861328 53.330078 C 44.215328 53.330078 44.504047 53.440922 44.748047 53.669922 C 45.012047 53.915922 45.244406 54.294687 45.441406 54.804688 C 45.700406 55.461688 45.986922 56.023609 46.294922 56.474609 C 46.615922 56.942609 47.068531 57.332766 47.644531 57.634766 C 48.224531 57.936766 48.982484 58.091797 49.896484 58.091797 C 51.159484 58.091797 52.206859 57.785641 53.005859 57.181641 C 53.819859 56.563641 54.234375 55.781422 54.234375 54.857422 C 54.234375 54.124422 54.006594 53.516828 53.558594 53.048828 C 53.123594 52.598828 52.556047 52.251578 51.873047 52.017578 C 51.227047 51.792578 50.350531 51.552734 49.269531 51.302734 C 47.862531 50.969734 46.666797 50.573906 45.716797 50.128906 C 44.795797 49.694906 44.054625 49.096609 43.515625 48.349609 C 42.980625 47.610609 42.708984 46.669688 42.708984 45.554688 C 42.708984 44.492688 42.997406 43.540703 43.566406 42.720703 C 44.131406 41.903703 44.966875 41.264266 46.046875 40.822266 C 47.139875 40.374266 48.446594 40.146484 49.933594 40.146484 z M 76.767578 41.654297 C 76.491578 41.654297 76.267578 41.878297 76.267578 42.154297 L 76.267578 46.154297 C 76.267578 46.430297 76.491578 46.654297 76.767578 46.654297 C 77.043578 46.654297 77.267578 46.430297 77.267578 46.154297 L 77.267578 42.154297 C 77.267578 41.877297 77.043578 41.654297 76.767578 41.654297 z"/></svg>